# xmcd
#
# Track frame offsets: 
#        150
#        16217
#        40365
#        51192
#        67725
#        88670
#        119332
#        138072
#        155967
#        174012
#        195185
#
# Disc length: 2859 seconds
#
# Revision: 4
# Processed by: cddbd v1.5.2PL0 Copyright (c) Steve Scherf et al.
# Submitted via: ExactAudioCopy v1.0b6
#
DISCID=830b290b
DTITLE=Stevie Ray Vaughan and Double Trouble - Greatest Hits
DYEAR=1995
DGENRE=Rock
TTITLE0=Taxman
TTITLE1=Texas Flood
TTITLE2=The House Is Rockin'
TTITLE3=Pride And Joy
TTITLE4=Tightrope
TTITLE5=Little Wing
TTITLE6=Crossfire
TTITLE7=Change It
TTITLE8=Cold Shot
TTITLE9=Couldn't Stand The Weather
TTITLE10=Life Without You
EXTD=
EXTT0=
EXTT1=
EXTT2=
EXTT3=
EXTT4=
EXTT5=
EXTT6=
EXTT7=
EXTT8=
EXTT9=
EXTT10=
PLAYORDER=
